inDegrees=yes
name=ik_lifting_orientations
DataType=double
version=3
OpenSimVersion=4.5-2024-01-10-34fd6af
endheader
time	pelvis_tilt	pelvis_list	pelvis_rotation	pelvis_tx	pelvis_ty	pelvis_tz	hip_flexion_r	hip_adduction_r	hip_rotation_r	knee_angle_r	knee_angle_r_beta	ankle_angle_r	subtalar_angle_r	mtp_angle_r	hip_flexion_l	hip_adduction_l	hip_rotation_l	knee_angle_l	knee_angle_l_beta	ankle_angle_l	subtalar_angle_l	mtp_angle_l	lumbar_extension	lumbar_bending	lumbar_rotation	arm_flex_r	arm_add_r	arm_rot_r	elbow_flex_r	pro_sup_r	wrist_flex_r	wrist_dev_r	arm_flex_l	arm_add_l	arm_rot_l	elbow_flex_l	pro_sup_l	wrist_flex_l	wrist_dev_l
0.88	0.2821250189965678	3.414682996335041	-87.91213818208345	0	0.9399999998679526	0	44.86132513407346	-11.18315102346128	0	60.04536563375078	1.047989330872803	-5.485121605118811	0	0	44.86132513407346	-11.18315102346128	0	60.04536563375078	1.047989330872803	-5.485121605118811	0	0	-4.307720199170779	7.442083746175432	-31.14377646524154	8.084613999518721	7.879250425606648	63.39906738173649	43.23308825697897	2.699059112125567	0	0	0	-9.50698418972528	0	87.34390021174391	2.699059112125567	0	0
0.89	0.4587442950409963	1.689477353715756	-87.21463125522349	0	0.9399999998679526	0	44.86220079723395	-11.16498311256001	0	60.04508303569296	1.047984398606234	-5.476170666807824	0	0	44.86220079723395	-11.16498311256001	0	60.04508303569296	1.047984398606234	-5.476170666807824	0	0	-4.334648280775678	6.420038036473365	-30.42981912713187	8.180809382379643	9.958685512339038	62.95125483742655	43.44110333078019	2.686025070877791	0	0	0	-9.528036236648557	0	87.35672579341677	2.686025070877791	0	0
0.9	0.5657081470796632	-0.2092628041843314	-85.65317153117441	0	0.9399999998679526	0	44.86351553498957	-11.13832986152581	0	60.04465617703415	1.047976948517197	-5.46313401962134	0	0	44.86351553498957	-11.13832986152581	0	60.04465617703415	1.047976948517197	-5.46313401962134	0	0	-5.543208200512046	4.854921414089652	-28.92472519024009	8.30308301323241	12.61316503290399	60.64358089040059	45.81822908037174	2.666372837165652	0	0	0	-9.559871219053333	0	87.3760637302701	2.666372837165652	0	0
0.91	0.2800029914816393	-1.371311250545453	-84.57882848571724	0	0.9399999998679526	0	44.8645545201038	-11.11737084618354	0	60.0443199620733	1.047971080459136	-5.452902929813489	0	0	44.8645545201038	-11.11737084618354	0	60.0443199620733	1.047971080459136	-5.452902929813489	0	0	-5.892489827171569	4.238176102521793	-26.71222884716395	9.874292117578614	15.1840749218516	58.31728365950564	45.81730616381515	2.650832845466048	0	0	0	-9.585053643492357	0	87.39135519292526	2.650832845466048	0	0
0.92	0.5862879176999248	-2.002092543537253	-82.72720790115869	0	0.9399999998679526	0	44.86518840525956	-11.10430958703149	0	60.04411682045176	1.047967534968992	-5.446485363360405	0	0	44.86518840525956	-11.10430958703149	0	60.04411682045176	1.047967534968992	-5.446485363360405	0	0	-3.836794066909961	1.783445854656016	-29.01983150288973	7.759086695491028	18.54545132344185	61.21127204355723	46.64644253707756	2.641388232047629	0	0	0	-9.600317610574153	0	87.40064875546724	2.641388232047629	0	0
0.93	0.3413203951555508	-3.158866820561611	-81.66123518264226	0	0.9399999998679526	0	44.86650581544805	-11.07780047487858	0	60.043694103347	1.04796015716371	-5.433578872221123	0	0	44.86650581544805	-11.07780047487858	0	60.043694103347	1.04796015716371	-5.433578872221123	0	0	-4.372578826289225	1.267585481713069	-23.95479120909148	10.67612846086089	21.35360144749617	55.09628895056304	50.92151581511401	2.621696419010966	0	0	0	-9.632205894850502	0	87.42002563789886	2.621696419010966	0	0
0.9399999999999999	0.1268208431239204	-4.338720570632862	-80.5984849276596	0	0.9399999998679526	0	44.8673602189643	-11.06092770752424	0	60.04341833177708	1.047955344041831	-5.425404284125797	0	0	44.8673602189643	-11.06092770752424	0	60.04341833177708	1.047955344041831	-5.425404284125797	0	0	-3.729887327239592	-0.6115262640361483	-25.75254377596529	10.3504340628741	25.04107923303018	55.83531645863188	55.6687253364999	2.608874011762528	0	0	0	-9.653030812894077	0	87.4326429832357	2.608874011762528	0	0
0.95	0.5030298917068551	-4.960973125931332	-78.72505536481486	0	0.9399999998679526	0	44.86933083935153	-11.02270752738409	0	60.04277621214737	1.047944136940101	-5.40697145236412	0	0	44.86933083935153	-11.02270752738409	0	60.04277621214737	1.047944136940101	-5.40697145236412	0	0	-4.428812442029685	-0.7212974194993763	-27.61773708887841	12.68410387092113	27.71943494406965	55.30747365998732	63.96391637622308	2.579175364035817	0	0	0	-9.701417757096527	0	87.46186669269822	2.579175364035817	0	0
